<svg width="36" height="36" viewBox="0 0 36 36" fill="none" xmlns="http://www.w3.org/2000/svg">
<path d="M17.7027 0.116821C8.06215 0.116821 0.244751 7.93422 0.244751 17.5748C0.244751 27.2154 8.06215 35.0328 17.7027 35.0328C27.3433 35.0328 35.1607 27.2154 35.1607 17.5748C35.1607 7.93422 27.3433 0.116821 17.7027 0.116821ZM25.3051 20.946L17.8317 28.4194L10.1004 20.688C9.67895 20.2666 9.67895 19.5872 10.1004 19.1658C10.5218 18.7444 11.2012 18.7444 11.6226 19.1658L16.6277 24.171V7.80522C16.6277 7.21182 17.1093 6.73022 17.7027 6.73022C18.2961 6.73022 18.7777 7.21182 18.7777 7.80522V24.429L23.7829 19.4238C24.2043 19.0024 24.8837 19.0024 25.3051 19.4238C25.7265 19.8452 25.7265 20.5246 25.3051 20.946Z" fill="#FFF5BF"/>
</svg>
