<svg width="19" height="19" viewBox="0 0 19 19" fill="none" xmlns="http://www.w3.org/2000/svg">
<path d="M5.26186 0C2.35619 0 0 2.35619 0 5.26186V13.6814C0 16.5871 2.35619 18.9433 5.26186 18.9433H13.6814C16.5871 18.9433 18.9433 16.5871 18.9433 13.6814V5.26186C18.9433 2.35619 16.5871 0 13.6814 0H5.26186ZM15.7856 2.10416C16.3658 2.10416 16.8377 2.57598 16.8377 3.15624C16.8377 3.7365 16.3658 4.20832 15.7856 4.20832C15.2053 4.20832 14.7335 3.7365 14.7335 3.15624C14.7335 2.57598 15.2053 2.10416 15.7856 2.10416ZM9.47165 4.20832C12.3773 4.20832 14.7335 6.56451 14.7335 9.47018C14.7335 12.3759 12.3773 14.732 9.47165 14.732C6.56597 14.732 4.20979 12.3759 4.20979 9.47018C4.20979 6.56451 6.56597 4.20832 9.47165 4.20832ZM9.47165 6.31248C7.72795 6.31248 6.31395 7.72649 6.31395 9.47018C6.31395 11.2139 7.72795 12.6279 9.47165 12.6279C11.2153 12.6279 12.6294 11.2139 12.6294 9.47018C12.6294 7.72649 11.2153 6.31248 9.47165 6.31248Z" fill="#FFF5BF"/>
</svg>
