<?xml version="1.0" encoding="UTF-8"?>
<svg xmlns="http://www.w3.org/2000/svg" version="1.1" viewBox="0 0 1000 1000">
  <defs>
    <style>
      .cls-1 {
        fill: #FFF5BF;
      }
    </style>
  </defs>
  <!-- Generator: Adobe Illustrator 28.7.8, SVG Export Plug-In . SVG Version: 1.2.0 Build 200)  -->
  <g>
    <g id="Layer_1">
      <path class="cls-1" d="M418.53,317.4c0,18.5-15.01,33.51-33.52,33.51s-33.51-15.01-33.51-33.51,15.01-33.52,33.51-33.52,33.52,15.01,33.52,33.52Z"/>
      <path class="cls-1" d="M648.51,317.4c0,18.5-15.01,33.51-33.52,33.51s-33.51-15.01-33.51-33.51,15.01-33.52,33.51-33.52,33.52,15.01,33.52,33.52Z"/>
      <path class="cls-1" d="M715.04,102.22c-24.49-47.71-78.87-89.54-125.51-16.7-46.63,72.84-89.53,69.03-89.53,69.03,0,0-42.9,3.81-89.53-69.03-46.65-72.84-101.03-31.01-125.51,16.7-23.36,45.49-189.8,555.68-26.36,789.7,12.56,17.99,36.58,18.36,49.56.74l39.63-53.77c12.95-17.58,36-20.3,51.72-5.88,23.53,21.55,60.28,47.6,100.49,47.6s76.97-26.05,100.49-47.6c15.73-14.41,38.76-11.69,51.72,5.88l39.63,53.77c12.98,17.61,36.99,17.25,49.56-.74,163.44-234.01-3.01-744.21-26.36-789.7ZM590.19,786.77c-62.93,38.21-144.93,18.15-183.14-44.78-38.2-62.95-18.15-144.94,44.8-183.14,8.1-4.91,16.49-8.85,25.07-11.87-45.02,42.21-55.97,111.52-22.68,166.37,33.29,54.85,99.83,77.12,158.05,56.66-6.64,6.22-14.01,11.86-22.11,16.77ZM531.17,409.36l-18.8,39.45c-4.15,8.71-16.66,8.36-20.32-.57l-16.05-39.21c-146.05,49.19-237.44-92.23-153.61-167.3,49.32-44.17,102.6-32.12,138.13-14.71,25.96,12.72,56.12,12.72,82.08,0,35.53-17.41,88.81-29.46,138.13,14.71,83.83,75.08-29.98,216.83-149.56,167.64Z"/>
      <path class="cls-1" d="M418.53,317.4c0,18.5-15.01,33.51-33.52,33.51s-33.51-15.01-33.51-33.51,15.01-33.52,33.51-33.52,33.52,15.01,33.52,33.52Z"/>
      <path class="cls-1" d="M648.51,317.4c0,18.5-15.01,33.51-33.52,33.51s-33.51-15.01-33.51-33.51,15.01-33.52,33.51-33.52,33.52,15.01,33.52,33.52Z"/>
      <g>
        <path class="cls-1" d="M418.53,317.4c0,18.5-15.01,33.51-33.52,33.51s-33.51-15.01-33.51-33.51,15.01-33.52,33.51-33.52,33.52,15.01,33.52,33.52Z"/>
        <path class="cls-1" d="M648.51,317.4c0,18.5-15.01,33.51-33.52,33.51s-33.51-15.01-33.51-33.51,15.01-33.52,33.51-33.52,33.52,15.01,33.52,33.52Z"/>
      </g>
    </g>
  </g>
</svg>
