<svg width="86" height="16" viewBox="0 0 86 16" fill="none" xmlns="http://www.w3.org/2000/svg">
<path d="M1.13168 0.417914C1.59197 0.179362 2.22728 0.361692 2.71889 0.636491C2.8729 0.72162 2.82531 1.14964 2.93285 1.22746C3.14315 1.37911 3.31579 1.15956 3.52576 1.34284C3.59548 1.40565 3.55732 2.08123 3.62944 2.13175C4.02431 2.40375 4.36878 2.21007 4.75862 2.32801C6.67894 2.91006 8.53822 3.04279 10.4558 3.22576C11.0881 3.28552 11.8881 3.84479 12.5173 3.53705C12.5907 3.50052 12.5077 2.91505 12.519 2.86562C12.6962 2.10871 12.698 3.30135 12.8552 3.44968C13.4789 4.03515 14.1313 4.04748 14.6782 3.78418C14.9107 3.67043 14.5958 2.51722 14.8787 3.15766C14.8982 3.20091 14.8779 3.82963 14.9477 3.89204C15.106 4.03234 15.3807 3.90248 15.499 3.94455C15.7273 4.0288 15.7636 4.02015 15.974 4.01372C16.2619 4.01038 16.6233 4.29895 16.922 4.13751C16.9857 4.1012 16.8574 3.46631 16.9551 3.35055C17.053 3.23496 17.334 3.27137 17.4373 3.41632C17.5407 3.56135 17.5333 4.06734 17.5573 4.18167C17.7564 5.14683 17.9904 3.77719 18.0295 3.74117C18.7459 3.12418 19.4413 3.85094 20.148 3.80315C20.6845 3.76523 21.2419 3.47452 21.7548 3.47637C22.366 3.48104 22.9039 3.79486 23.4911 3.69707C23.5531 3.68748 23.4314 2.93911 23.5071 2.92589C24.3107 2.78604 25.1198 2.81628 25.9584 3.27269C26.0425 3.31912 25.9811 3.98705 26.0677 4.07297C26.5971 4.58447 27.4635 5.83936 27.5713 2.94159C27.9135 3.0324 28.3275 3.12232 28.6645 3.6833C28.8817 4.04433 28.7406 4.77675 28.958 4.45408C29.0071 4.38215 28.8968 3.75582 28.9736 3.69565C29.2965 3.44292 29.6789 3.62416 29.9921 3.27667C30.0557 3.2045 30.0007 2.64046 30.0134 2.53744C30.1221 1.70268 30.4795 3.04793 30.5447 3.14316C31.0397 3.85266 31.3477 3.54101 31.7656 3.53215C31.8627 3.53041 31.6994 2.77855 31.7909 2.74961C32.2666 2.60965 32.7708 2.64265 33.2652 2.94905C33.3753 3.01903 33.3203 3.672 33.3751 3.73853C33.6159 4.02402 33.5862 2.79934 33.8157 3.04956C33.864 3.10074 33.8745 3.65602 33.8866 3.7163C34.076 4.66255 34.0998 3.30292 34.1308 3.27094C34.5205 2.83611 34.8775 4.23086 35.2665 4.005C35.313 3.97656 35.1593 3.28302 35.2927 3.24589C36.1806 2.99441 37.1453 3.12541 38.0727 3.62824C38.2168 3.70548 38.1519 4.23811 38.1648 4.30242C38.3723 5.30689 38.3766 3.9428 38.4185 3.88874C38.7512 3.49757 39.1577 4.61505 39.2955 2.98177C40.8413 3.44575 42.2854 2.44041 43.8761 3.79303C43.8962 3.80859 43.9053 4.47968 43.9452 4.50784C44.4267 4.85391 44.2718 3.82 44.4924 2.52906C44.548 2.20488 44.8789 3.72495 44.9067 3.83614C45.0082 4.24596 44.9949 5.24608 45.0251 5.32477C45.2729 5.94196 45.0268 2.6532 45.3061 2.63411C45.3152 2.63903 45.3176 3.24714 45.3449 3.30585C45.43 3.49024 45.4867 3.24488 45.5714 3.44879C45.7657 3.92075 45.927 5.51612 46.1162 4.56936C46.1399 4.44654 45.9713 2.58289 46.2265 2.65498C46.3283 2.6853 46.7664 2.6249 46.8976 2.73792C47.0286 2.8508 46.9828 3.45782 46.9933 3.4833C47.3766 4.25734 47.272 4.59515 47.5143 5.76209C47.7563 6.9246 47.5296 4.1293 47.5773 3.81259C47.6251 3.49677 47.9109 4.13737 47.9855 4.36167C48.06 4.58607 48.0101 4.97313 48.0715 5.09887C48.4785 5.92004 48.1367 3.69992 48.2242 3.24829C48.4302 2.179 48.7773 4.24046 49.0411 4.42763C49.1125 4.47817 49.0267 4.0091 49.0842 3.961C49.3125 3.77676 49.4982 4.415 49.7321 3.80373C49.7704 3.7041 49.9099 2.44223 50.1114 3.34868C50.1401 3.47941 50.1161 4.00024 50.2255 4.1095C50.3891 4.27352 50.6708 4.36885 50.8234 4.18543C50.936 4.04974 50.7424 3.20655 50.9117 3.46145C50.9869 3.57528 50.8938 4.08186 51.0324 4.25414C51.1704 4.42641 51.4921 4.38366 51.6139 4.35852C51.7355 4.33301 51.6267 3.69097 51.6338 3.64679C51.6777 3.39347 51.8931 3.06659 51.914 3.06602C52.9587 2.91939 53.997 3.94646 54.9959 3.51991C55.0743 3.48737 54.9769 2.8092 54.9884 2.79721C55.2446 2.49391 55.145 4.32013 55.376 4.91434C55.259 3.53294 55.3884 3.77608 55.5721 3.61191C55.6605 3.53167 55.5752 2.99936 55.5801 2.94399C55.6659 2.12159 55.8299 3.1661 55.8686 3.37944C56.0111 4.16422 56.0505 3.22355 56.1469 3.74803C56.243 4.26857 56.1499 5.05545 56.3347 5.03352C56.3548 4.53503 56.1336 3.24999 56.2609 3.0312C56.7411 2.20369 57.7986 3.1549 58.2327 3.23279C58.6659 3.31065 58.7977 3.21041 59.0578 3.37332C59.5275 3.66791 59.3011 2.71851 59.5514 2.26111C59.8026 1.80371 59.8191 4.17455 59.892 4.67974C59.9642 5.18475 59.9736 4.6595 60.0406 4.93535C60.1075 5.21115 60.0239 5.56323 60.1457 5.66056C60.2675 5.75777 60.5239 4.83451 60.5304 4.30094C60.5441 3.17053 60.3262 1.99911 60.6574 2.39428C60.6765 2.41777 60.6598 3.04253 60.7309 3.10098C61.2943 3.54476 61.8495 3.5387 62.4088 3.92728C62.4857 3.98168 62.4649 4.67685 62.5102 4.71633C62.9821 5.12967 62.7484 3.97487 62.9079 2.66499C62.9645 4.39081 63.1668 5.43586 63.504 5.42432C63.7067 5.41799 63.6234 4.66801 63.72 4.12941C63.7489 3.96706 63.9254 4.47432 63.9285 4.11889C63.9394 2.95699 63.7211 1.6712 64.1013 2.16427C64.1181 2.18778 64.1104 2.8239 64.1655 2.85884C64.5217 3.08782 64.4843 1.87564 64.8424 1.70545C65.123 1.57193 65.6829 2.27645 66.0186 2.37525C66.1366 4.31206 66.4178 3.84867 66.4574 2.50547C66.6737 2.5464 66.8988 2.45609 67.1164 2.62735C67.1913 2.6857 67.1809 3.24933 67.1938 3.30933C67.392 4.25076 67.4007 2.94589 67.4434 2.89201C67.9094 2.36488 68.3787 3.32316 68.7918 2.3304C68.8064 2.29466 68.747 0.947831 68.9374 1.92174C68.95 1.98891 68.8325 2.61101 69.0591 2.64392C69.2858 2.67692 69.7538 3.37078 70.024 2.72748C70.0894 2.57258 70.209 1.4684 70.4165 2.31169C70.4443 2.42623 70.447 2.81343 70.4901 3.02621C70.629 3.7041 70.5931 2.34124 70.779 3.48904C70.965 4.63678 71.2525 5.48679 71.5142 4.66974C71.5226 4.64593 71.5272 3.56359 71.6268 3.57428C71.7857 3.59227 72.0233 3.80235 72.187 3.78474C72.2653 3.77593 72.1718 3.11006 72.1847 3.09694C72.6888 2.68792 73.1032 3.26016 73.6858 3.48254C73.7927 3.52463 74.032 2.59296 74.2794 3.30137C74.5509 4.07682 74.5362 7.37635 74.9926 6.56103C75.1768 6.23482 75.1668 2.05062 75.6735 4.1861C76.3516 3.6051 77.0818 4.66765 77.7471 3.85758C77.777 3.82166 77.8036 2.65199 77.8802 2.66295C77.994 2.68146 78.0906 3.22111 78.173 3.25176C78.5191 3.39386 78.7962 2.90894 79.1244 2.96041C79.2489 2.97877 79.2422 3.54365 79.3907 3.56561C79.5391 3.58706 79.589 2.84058 79.8105 3.18526C79.9779 3.44808 80.2253 4.95132 80.4356 5.11483C80.3469 3.62203 80.4855 3.64395 80.7028 3.23435C80.7446 3.15491 80.661 2.63873 80.679 2.57436C80.7516 2.30086 80.8625 2.72597 80.929 2.42906C80.9453 2.35773 80.9134 1.84804 80.9248 1.76096C81.0206 1.00112 81.3323 2.13216 81.386 2.32912C81.5913 3.07707 81.6217 2.40951 81.7609 2.70028C81.9 2.99102 81.7449 3.3757 81.8966 3.5478C82.2108 3.90372 82.5783 3.79736 82.8744 3.80177C82.9923 3.80039 82.8682 3.12528 82.8841 3.10928C83.116 2.92106 83.4085 3.62883 83.4559 2.26506C83.8505 5.75791 83.5806 1.91576 83.9733 2.59474C84.0043 2.6497 84.146 4.30434 84.0566 4.55437C83.9672 4.80416 83.7745 4.29652 83.6532 4.68511C83.6244 4.77632 83.5268 6.34169 83.5059 6.43748C83.3419 7.18615 83.1522 4.71209 83.1323 4.57682C82.9108 3.1174 82.777 4.80563 82.7208 4.92532C82.4639 5.47368 82.194 5.14143 81.9749 5.53515C81.8314 5.78973 81.9205 7.41261 81.7922 7.37103C81.3659 7.23376 81.0748 4.98061 80.8096 6.96763C80.7526 7.39146 80.9505 9.15872 80.5595 7.78425C80.535 7.6976 80.2292 6.43687 80.1522 7.25176C80.1425 7.35451 80.1764 7.87108 80.1578 7.91586C80.0325 8.20583 79.9104 7.80043 79.767 8.00762C79.6236 8.21481 79.4548 8.52077 79.2653 8.35705C79.1511 8.2592 78.9512 7.30557 78.8845 7.07324C78.6955 6.40376 78.6117 7.52683 78.4687 6.71059C78.3247 5.89027 78.4211 4.62414 78.1488 4.10568C78.2265 5.44844 78.2952 6.82738 78.3681 8.17811C77.8438 8.16449 77.3029 7.76357 76.7836 7.85661C76.7194 7.86948 76.8322 8.58678 76.7645 8.61918C76.4786 8.75274 76.1893 8.25488 75.8983 8.47935C75.6733 8.65586 75.4645 9.43651 75.2307 9.64486C74.9813 8.11871 74.6496 8.66367 74.3752 8.54043C74.2791 8.49793 74.2588 8.08733 74.1841 7.95778C73.9027 7.47894 74.1072 8.82862 74.0526 9.04662C73.8181 9.97712 73.5948 6.90674 73.2538 7.00495C73.2357 7.00912 73.1174 8.66108 73.0931 8.76504C72.94 9.44263 73.0239 8.19718 72.8934 8.08411C72.6552 7.87745 72.4743 7.49643 72.2425 7.99301C72.175 8.14002 72.0571 9.17252 71.8573 8.39266C71.8311 8.29055 71.807 7.74859 71.7892 7.71791C71.4699 7.20794 71.5721 8.90913 71.4463 9.49562C71.3205 10.082 70.993 8.92422 70.9199 8.58916C70.7294 7.72248 70.9985 8.20845 71.0002 8.12209C71.0195 7.09434 70.8473 7.28218 70.7014 7.20485C70.5735 5.53861 70.3838 5.65136 70.5506 7.1314C70.5692 7.29304 70.6684 7.13049 70.7014 7.20485C70.6838 8.8489 70.4817 9.07235 70.1449 7.5588C69.9872 6.84941 70.0387 6.00712 69.7198 6.33461C69.575 6.4825 69.7085 7.62686 69.5931 7.94865C69.3293 8.68287 68.8576 7.63777 68.549 7.82714C68.437 7.89589 68.5905 8.51712 68.5154 8.58576C68.3161 8.76989 68.1002 8.31027 67.9046 8.56547C67.887 8.58939 67.9761 9.2443 67.911 9.25692C67.4181 9.36545 66.9574 8.97201 66.4369 8.99386C66.1854 9.00472 65.7598 9.39655 65.4949 9.34038C65.0361 9.24692 64.4196 8.32598 64.0494 8.58325C63.8078 8.74823 63.9054 9.40273 63.8266 9.85804C63.675 10.7406 63.2068 9.2075 63.1418 8.96963C63.1397 8.96175 63.3459 8.79267 63.2088 8.46232C63.0963 7.76278 63.144 8.96642 63.1418 8.96963C63.0992 8.81601 62.6577 8.69448 62.5801 8.82581C62.5379 8.89756 62.6042 9.51936 62.5814 9.54499C62.04 10.1402 61.4717 10.336 60.8672 10.0822C60.856 10.0703 60.8266 9.37192 60.801 9.35258C60.4419 9.06437 60.2798 9.93152 60.0328 10.4561C59.7859 10.9804 59.5532 10.8251 59.3104 9.63859C59.1092 9.80294 58.7724 9.29317 58.5775 8.98325C58.3826 8.67333 58.4458 10.0324 58.4323 10.0603C58.0097 10.9501 57.6832 10.1909 57.1795 10.1019C56.9399 10.0573 56.4849 10.2844 56.2392 10.4493C56.0452 10.5819 55.9031 10.2716 55.7303 10.4871C55.7069 10.5158 55.7713 11.1187 55.7652 11.1424C55.6044 11.879 55.6087 10.3949 55.5489 10.1337C55.3317 9.18406 55.2027 8.67912 54.9662 9.14773C54.9116 9.25508 54.8703 11.3942 54.7666 11.5259C54.6316 11.6931 54.6372 10.9269 54.497 11.1215C54.485 11.1374 54.5181 11.6077 54.4229 11.5931C53.9814 11.5311 53.4887 11.2879 53.039 11.3643C52.9775 11.3729 53.1049 12.1141 53.0168 12.1388C52.6032 12.2543 52.1418 12.2564 51.7108 11.9334C51.6046 11.8516 51.6339 11.325 51.6021 11.1712C51.4075 10.2412 51.3055 11.6174 51.2758 11.6454C50.5702 12.3491 49.9182 11.1517 49.1938 11.7885C49.1546 11.8257 48.9295 13.3085 48.7061 12.0636C48.691 11.9808 48.4672 10.707 48.3992 11.5922C48.3949 11.6476 48.5254 12.3024 48.3678 12.245C48.2101 12.1877 47.9919 12.6447 47.7343 11.9326C47.6528 11.7083 47.4126 10.4386 47.2794 11.4717C47.271 11.5437 47.1126 13.8704 46.9003 12.2858C46.8656 12.025 46.7755 10.3395 46.5937 11.2184C46.5591 11.3887 46.6658 11.7591 46.5613 12.0014C46.4015 12.3748 46.1297 11.9393 45.9529 12.7041C45.9222 12.8395 45.8288 13.9935 45.6387 13.1344C45.6089 12.9999 45.6125 12.435 45.5377 12.3767C45.1814 12.0966 44.8531 12.4954 44.4861 12.1284C44.3562 11.9996 44.3594 11.0866 44.2175 10.8511C44.0755 10.6157 43.806 10.3979 43.7007 10.8218C43.5954 11.2459 43.8332 12.6853 43.6427 12.814C42.8146 13.3731 41.9073 12.5782 41.04 12.5093C40.9113 12.499 41.0504 13.0106 40.8632 13.0325C40.1733 13.1158 39.0091 13.6789 38.3372 12.6162C37.7988 11.7649 38.3613 11.0542 37.9703 10.7189C37.7817 10.559 37.6983 12.2558 37.6589 12.3115C37.275 12.8772 36.9359 12.1498 36.5738 12.4031C36.4991 12.4556 36.6194 13.1333 36.5553 13.1705C36.3368 13.3035 36.0794 13.0141 35.8668 13.0838C35.7716 13.1166 35.8231 13.6369 35.7312 13.6024C35.5119 13.5259 35.309 13.3189 35.0693 12.8436C35.0474 12.8003 35.1335 12.1435 34.974 12.1295C34.7159 12.1088 34.3675 11.6472 34.1055 12.164C34.0279 12.3194 34.1013 13.5113 33.8606 12.7004C33.8102 12.5311 33.7681 11.097 33.6293 12.3474C33.6058 12.5552 33.3463 14.2466 33.0968 13.1832C33.031 12.9034 32.8342 11.7403 32.7411 11.9311C32.7288 11.9614 32.8271 12.5978 32.7441 12.6658C32.4511 12.8945 32.1255 12.8469 31.8236 13.0677C31.743 13.1279 31.911 13.7822 31.7896 13.8508C31.4557 14.0405 31.0146 13.8996 30.6642 13.714C30.535 13.6443 30.5854 13.0901 30.5725 13.031C30.3645 12.0692 30.3631 13.3856 30.3198 13.4652C30.0492 13.9422 29.781 13.3412 29.5149 13.522C29.4414 13.5702 29.5358 14.1918 29.5242 14.2485C29.4017 14.8032 29.4467 13.6731 29.339 13.5558C29.0369 13.2235 28.7286 13.2938 28.4512 13.3919C28.3493 13.4289 28.5128 14.1461 28.4208 14.1709C27.8775 14.3314 27.2998 14.299 26.7359 13.9342C26.6297 13.8642 26.6574 13.302 26.6281 13.1759C26.425 12.2935 26.2902 13.5236 26.2486 13.6427C26.0595 14.1861 25.941 13.6982 25.7499 13.803C24.8167 14.3238 23.6069 14.0736 22.685 13.9303C21.484 13.7468 20.5308 13.2752 19.4104 13.4859C19.3392 13.4986 19.4594 14.2364 19.3986 14.2568C18.6114 14.4873 17.8062 14.248 17.0196 14.5141C16.955 14.5346 17.0951 15.2323 16.9929 15.2889C16.7835 15.4099 16.5071 15.3893 16.274 15.1787C16.1604 15.0773 16.2645 14.4641 16.1509 14.3744C15.8863 14.1641 15.6152 14.1312 15.3657 14.2606C15.2597 14.3172 15.471 15.0264 15.3295 15.0439C14.3668 15.1777 13.4247 15.363 12.3871 14.4939C12.3159 14.4342 12.1628 12.975 12.0384 13.2648C12.0538 13.6715 12.0852 14.149 12.1085 14.5833C10.7154 14.9079 9.28892 14.4907 7.87173 14.5034C7.81199 14.5041 7.9649 15.2726 7.84949 15.2779C7.1816 15.3095 6.54761 15.566 5.81549 14.8396C5.74292 14.7686 5.68967 13.4027 5.50345 13.6218C5.47068 13.6617 5.18189 13.863 5.12329 14.164C5.11562 14.2093 5.21151 14.8423 5.11587 14.8671C4.55935 15.0001 3.96024 14.8928 3.37336 14.5401C3.27857 14.482 3.33139 13.798 3.26349 13.7507C2.7822 13.4204 2.31718 13.9678 1.83975 13.3806C1.52003 12.9851 1.55291 11.8065 1.32281 10.6632C1.29029 10.5019 1.10719 10.4878 1.05452 9.81735C0.921568 8.13153 0.890243 6.2782 0.738147 4.48194C0.705535 4.09504 0.489473 4.52796 0.572936 3.58251C0.578944 3.51921 0.735061 3.19714 0.757961 2.87676C0.774004 2.65524 0.675538 1.97631 0.71904 1.69126C0.762554 1.40647 0.867185 1.97416 0.948063 1.63734C1.02863 1.29643 0.933633 0.522975 1.13168 0.417914ZM57.7006 7.59836C57.4972 6.95682 57.6275 9.34615 57.7651 8.76361C57.7716 8.73262 57.711 7.62981 57.7006 7.59836ZM77.1896 5.96229C76.9108 4.92271 76.8664 6.48062 77.0676 7.2844C77.2688 8.08732 77.2744 6.27741 77.1896 5.96229ZM79.3263 5.05233C79.0264 4.23784 79.206 7.62633 79.4258 6.9248C79.4386 6.88513 79.3439 5.09961 79.3263 5.05233ZM2.02364 10.2882C2.01937 10.2566 1.88696 10.2341 1.88587 10.2657C1.86535 11.0286 2.13009 11.073 2.02364 10.2882ZM81.442 4.07523C81.3355 3.62216 81.1481 4.16519 81.2804 4.72858C81.3869 5.18181 81.5745 4.63881 81.442 4.07523ZM49.1231 5.59273C49.1183 5.55732 49.0227 5.53131 49.0376 5.73232C49.0857 6.37972 49.204 6.18849 49.1231 5.59273ZM85.127 3.79834C84.5739 3.70604 84.0631 0.930364 84.6768 1.2077C84.7879 1.25787 84.5028 2.11458 84.6558 2.35792C84.9357 2.80118 84.9885 1.03429 85.3046 1.95888C85.3619 2.12814 85.1589 3.80982 85.1262 3.8023C85.1265 3.80098 85.1267 3.79966 85.127 3.79834ZM57.4227 4.7363C57.4174 4.70493 57.286 4.68334 57.285 4.71485C57.2638 5.47743 57.5285 5.52136 57.4227 4.7363ZM43.5719 4.46831C43.5604 4.40149 43.256 4.35794 43.2502 4.42057C43.1735 5.6703 43.7892 5.76202 43.5719 4.46831ZM66.0271 2.42656C66.1191 1.65484 66.2823 1.55415 66.4567 2.50454C66.313 2.46276 66.1713 2.46438 66.0271 2.42656Z" fill="#FFF5BF"/>
</svg>
