<svg width="552" height="27" viewBox="0 0 552 27" fill="none" xmlns="http://www.w3.org/2000/svg">
<path d="M6.19804 0.589386C9.28995 0.457433 13.3307 0.780373 16.3982 1.16227C17.3596 1.28097 16.8611 1.69283 17.5243 1.79385C18.8213 1.99089 20.0387 1.81297 21.3196 2.04116C21.7441 2.11885 21.197 2.77724 21.6425 2.84334C24.0836 3.20071 26.4042 3.08701 28.8811 3.29114C41.0812 4.29782 53.0844 4.84717 65.4438 5.45924C69.5191 5.66048 74.461 6.39261 78.6794 6.23035C79.1719 6.2108 78.8933 5.61413 78.9881 5.56786C80.4737 4.86048 79.9564 6.03832 80.9105 6.22012C84.6973 6.93846 88.924 7.0974 92.5888 6.9605C94.148 6.90053 92.6162 5.69116 94.1673 6.38708C94.2751 6.43417 93.8646 7.05032 94.2899 7.12764C95.2543 7.30176 97.094 7.23535 97.8431 7.30351C99.2868 7.43805 99.5262 7.43768 100.894 7.47866C102.763 7.54015 104.98 7.90633 106.989 7.81417C107.418 7.79264 106.867 7.13696 107.553 7.04468C108.239 6.95259 110.046 7.05175 110.652 7.2181C111.258 7.38452 110.986 7.88242 111.091 8.00068C111.955 8.99833 114.08 7.6988 114.35 7.67204C119.271 7.22409 123.46 8.09804 128.066 8.20986C131.563 8.29312 135.309 8.13153 138.635 8.24874C142.598 8.39086 145.949 8.82172 149.801 8.85727C150.208 8.86176 149.75 8.09555 150.247 8.09951C155.523 8.14226 160.758 8.35413 165.996 8.9934C166.522 9.05818 165.827 9.70376 166.35 9.80808C169.558 10.4322 174.623 11.866 176.607 9.02942C178.786 9.19604 181.432 9.37796 183.37 10.0076C184.619 10.4129 183.379 11.1042 184.933 10.8346C185.283 10.7746 184.845 10.1315 185.37 10.0893C187.577 9.91249 189.977 10.1775 192.164 9.90486C192.608 9.84793 192.501 9.27869 192.629 9.17984C193.705 8.38018 195.427 9.7887 195.807 9.89737C198.704 10.7092 200.841 10.4708 203.556 10.5561C204.186 10.5762 203.46 9.79719 204.067 9.78922C207.215 9.75806 210.471 9.90408 213.543 10.3178C214.226 10.4117 213.58 11.0439 213.906 11.1219C215.342 11.458 215.692 10.2422 217.07 10.5409C217.36 10.6023 217.182 11.1528 217.234 11.2151C218.043 12.1919 218.801 10.8549 219.016 10.8303C221.737 10.4887 223.434 11.946 226.058 11.8106C226.372 11.7929 225.683 11.0737 226.564 11.067C232.436 11.0185 238.637 11.3649 244.431 12.07C245.331 12.1786 244.674 12.6899 244.729 12.7563C245.63 13.7946 246.263 12.4489 246.558 12.4049C248.89 12.0936 251.032 13.2883 252.65 11.7068C262.473 12.5127 272.287 11.8451 282.007 13.5383C282.131 13.5582 281.892 14.2228 282.139 14.2596C285.109 14.7096 284.563 13.654 286.566 12.4291C287.07 12.1216 288.543 13.6967 288.674 13.8127C289.151 14.2402 288.621 15.2246 288.782 15.309C290.116 15.9741 289.978 12.6719 291.798 12.7159C291.855 12.7228 291.601 13.3237 291.752 13.3878C292.222 13.589 292.699 13.3595 293.158 13.5799C294.21 14.0895 294.549 15.7009 296.196 14.8087C296.404 14.6928 296.137 12.815 297.76 12.9436C298.407 12.9964 301.276 13.0353 302.077 13.1764C302.877 13.3174 302.311 13.9063 302.367 13.9338C304.511 14.7843 303.682 15.0942 304.737 16.3008C305.792 17.503 305.561 14.6923 306.01 14.3903C306.461 14.0893 308.03 14.786 308.415 15.0243C308.798 15.2626 308.303 15.6335 308.646 15.7714C310.922 16.6737 309.689 14.405 310.457 13.9788C312.267 12.9694 313.606 15.0827 315.234 15.3269C315.675 15.3928 315.326 14.9104 315.721 14.8759C317.283 14.7454 318.205 15.4173 319.993 14.8664C320.286 14.7766 321.75 13.5622 322.656 14.5025C322.784 14.638 322.397 15.1468 323.059 15.2793C324.047 15.478 325.833 15.6355 326.904 15.4887C327.695 15.3801 326.813 14.5041 327.798 14.7939C328.235 14.9232 327.406 15.4023 328.23 15.6036C329.049 15.8047 331.154 15.8349 331.956 15.8375C332.756 15.8397 332.334 15.1813 332.4 15.1393C332.797 14.8991 334.34 14.6248 334.475 14.629C341.318 14.7192 347.599 15.9668 354.268 15.7704C354.791 15.756 354.46 15.0645 354.54 15.0553C356.337 14.8135 354.881 16.594 356.116 17.2326C355.969 15.8425 356.701 16.1117 357.965 15.9909C358.575 15.9316 358.257 15.3869 358.314 15.3333C359.235 14.5407 359.836 15.6088 359.992 15.8281C360.569 16.635 361.241 15.7151 361.634 16.2546C362.027 16.7901 361.074 17.5461 362.283 17.566C362.634 17.0784 361.769 15.7599 362.692 15.5726C366.174 14.8637 372.613 16.0407 375.394 16.2152C378.17 16.3896 379.07 16.3203 380.685 16.5396C383.601 16.9361 382.553 15.9479 384.38 15.5526C386.213 15.1576 385.269 17.5019 385.518 18.0171C385.762 18.5319 386.056 18.0154 386.369 18.3028C386.68 18.5902 385.982 18.919 386.729 19.0425C387.476 19.1658 389.549 18.312 389.828 17.7867C390.417 16.6738 389.523 15.4683 391.497 15.9329C391.61 15.9604 391.224 16.5734 391.66 16.6471C395.118 17.212 398.723 17.331 402.179 17.8404C402.654 17.9114 402.211 18.5931 402.487 18.6422C405.365 19.1565 404.361 17.9638 405.977 16.7065C405.579 18.4231 406.428 19.5003 408.621 19.5648C409.939 19.6041 409.73 18.845 410.596 18.335C410.856 18.1812 411.775 18.7217 411.953 18.3715C412.539 17.2269 411.693 15.9083 413.941 16.4807C414.039 16.5077 413.708 17.1339 414.05 17.1808C416.259 17.487 416.554 16.2819 418.952 16.1944C420.832 16.1257 424.152 16.9472 426.286 17.1203C426.193 19.059 428.223 18.6648 429.075 17.3476C430.46 17.4367 431.96 17.3982 433.296 17.6162C433.756 17.6907 433.439 18.2448 433.496 18.3069C434.364 19.2809 435 17.9947 435.3 17.951C438.557 17.5355 441.176 18.5871 444.297 17.7C444.408 17.668 444.619 16.3249 445.423 17.3293C445.474 17.3984 444.437 17.9862 445.892 18.0696C447.348 18.1532 450.077 18.9435 452.115 18.3692C452.608 18.231 453.873 17.1678 454.845 18.047C454.975 18.1664 454.821 18.5492 455.006 18.769C455.607 19.4695 455.978 18.1159 456.675 19.2909C457.373 20.4659 458.862 21.3698 460.921 20.622C460.987 20.6004 461.496 19.5329 462.137 19.5658C463.161 19.6193 464.609 19.8802 465.678 19.8996C466.19 19.9086 465.879 19.2301 465.969 19.2201C469.42 18.9297 471.855 19.5879 475.536 19.9385C476.211 20.0041 478.176 19.1381 479.467 19.8932C480.885 20.7198 479.327 23.974 482.649 23.2718C483.989 22.9912 485.779 18.858 488.119 21.0803C492.776 20.6592 497.042 21.8726 501.717 21.2225C501.928 21.1938 502.619 20.045 503.11 20.073C503.841 20.1169 504.228 20.6714 504.749 20.7202C506.932 20.9384 508.944 20.522 511.05 20.6466C511.85 20.6928 511.556 21.2489 512.51 21.304C513.463 21.3586 514.118 20.6328 515.402 21.023C516.371 21.3201 517.31 22.8598 518.602 23.0686C518.688 21.5749 519.577 21.6277 521.169 21.2722C521.475 21.2032 521.162 20.6748 521.308 20.6153C521.899 20.3616 522.431 20.8062 522.994 20.5281C523.131 20.4613 523.15 19.9509 523.263 19.8675C524.221 19.1389 525.741 20.3257 526.003 20.5322C527.003 21.3168 527.496 20.6646 528.271 20.983C529.044 21.3013 527.867 21.6462 528.775 21.8502C530.656 22.2723 533.086 22.25 535.006 22.321C535.771 22.3461 535.266 21.6517 535.376 21.6395C536.964 21.5058 538.548 22.2704 539.46 20.9347C540.471 24.4718 540.423 20.6178 542.67 21.3765C542.847 21.4378 543.033 23.1032 542.342 23.3299C541.651 23.5564 540.626 23.0119 539.666 23.3682C539.439 23.4518 538.112 24.9753 537.934 25.0651C536.538 25.7674 536.405 23.2822 536.335 23.1441C535.545 21.6535 533.929 23.2901 533.511 23.3956C531.601 23.8792 529.998 23.4905 528.402 23.8299C527.358 24.0489 527.216 25.6712 526.403 25.6013C523.698 25.3698 522.808 23.0799 520.207 24.9819C519.649 25.3875 520.149 27.1768 518.223 25.7319C518.101 25.6408 516.677 24.3273 515.816 25.1145C515.707 25.2138 515.698 25.7314 515.558 25.7714C514.617 26.0295 514.004 25.6018 512.982 25.7741C511.96 25.9464 510.729 26.2105 509.572 26.0062C508.875 25.8839 508 24.8974 507.671 24.6531C506.742 23.9496 505.7 25.0395 505.134 24.2015C504.563 23.3592 505.75 22.1309 504.213 21.5578C504.123 22.9009 503.957 24.2778 503.831 25.6277C500.435 25.4963 497.104 24.9788 493.694 24.9538C493.271 24.952 493.686 25.6856 493.232 25.7024C491.318 25.7699 489.662 25.2133 487.675 25.3694C486.137 25.4931 484.435 26.2168 482.827 26.3699C481.885 24.807 479.492 25.2704 477.766 25.087C477.161 25.0235 477.212 24.6135 476.785 24.4688C475.172 23.9328 475.9 25.3113 475.449 25.5142C473.515 26.3801 473.427 23.2986 471.172 23.3188C471.052 23.3189 469.552 24.9232 469.349 25.0203C468.055 25.6548 469.152 24.4441 468.355 24.3031C466.901 24.0455 465.897 23.6287 464.173 24.0668C463.67 24.1967 462.447 25.1895 461.497 24.3747C461.372 24.268 461.456 23.7275 461.354 23.6932C459.509 23.1179 459.418 24.8204 458.342 25.3711C457.265 25.9217 455.654 24.705 455.328 24.3578C454.477 23.4593 456.007 23.9996 456.056 23.9147C456.637 22.9044 455.437 23.0511 454.525 22.9419C454.434 21.2682 453.153 21.3368 453.579 22.8355C453.628 22.9993 454.343 22.8611 454.525 22.9419C453.681 24.5611 452.271 24.7362 450.757 23.1662C450.049 22.4303 450.756 21.6104 448.542 21.8619C447.537 21.9754 447.896 23.1352 447.004 23.4269C444.967 24.0924 442.37 22.9545 440.285 23.072C439.528 23.1147 440.248 23.7626 439.73 23.8134C438.356 23.9504 437.159 23.448 435.777 23.656C435.652 23.6756 435.94 24.3423 435.512 24.3401C432.266 24.3363 429.452 23.8442 426.065 23.7487C424.429 23.7028 421.494 23.9939 419.8 23.8789C416.865 23.6834 413.274 22.6355 410.758 22.8062C409.118 22.9147 409.46 23.5828 408.748 24.0146C407.373 24.8518 405.015 23.2329 404.699 22.9834C404.689 22.9752 406.102 22.8547 405.358 22.4977C404.939 21.7817 404.715 22.9808 404.699 22.9834C404.491 22.8222 401.68 22.6029 401.118 22.7151C400.813 22.7764 400.967 23.4052 400.809 23.4254C397.032 23.8912 393.258 23.9566 389.449 23.5701C389.382 23.5558 389.501 22.8597 389.343 22.8349C387.141 22.4695 385.705 23.2892 383.87 23.7515C382.036 24.2136 380.595 24.0079 379.546 22.7819C378.168 22.8989 376.209 22.3198 375.082 21.97C373.955 21.6202 373.763 22.9762 373.662 23.0006C370.526 23.784 368.745 22.961 365.516 22.7599C363.982 22.6619 360.929 22.7838 359.262 22.8913C357.945 22.9786 357.16 22.6403 355.944 22.8141C355.78 22.8372 355.93 23.4468 355.879 23.4689C354.51 24.1599 355.196 22.6957 354.923 22.4244C353.935 21.438 353.323 20.9105 351.58 21.3199C351.178 21.4136 349.962 23.5162 349.232 23.6228C348.281 23.7575 348.657 23.0024 347.662 23.1629C347.577 23.176 347.583 23.6477 346.972 23.6118C344.135 23.4513 341.046 23.1004 338.095 23.0746C337.692 23.0693 338.19 23.8297 337.607 23.8343C334.873 23.8552 331.879 23.7535 329.226 23.3377C328.573 23.233 328.997 22.7197 328.859 22.5607C328.009 21.5987 326.737 22.9345 326.532 22.9554C321.642 23.4914 317.943 22.1626 312.961 22.6283C312.69 22.6562 310.573 24.0694 309.675 22.7902C309.614 22.7051 308.727 21.3971 307.893 22.2557C307.841 22.3094 308.397 22.9853 307.4 22.8931C306.402 22.8011 304.784 23.2032 303.429 22.4422C303 22.2024 302.004 20.8949 300.682 21.8848C300.596 21.954 298.536 24.2154 297.861 22.6033C297.752 22.338 297.915 20.6537 296.346 21.4805C296.046 21.6409 296.573 22.0305 295.789 22.2462C294.586 22.5789 293.016 22.0878 291.53 22.8031C291.271 22.9299 290.153 24.0481 289.301 23.1573C289.167 23.0177 289.441 22.4609 288.981 22.3864C286.794 22.0297 284.487 22.3496 282.269 21.9048C281.483 21.7483 281.909 20.8476 281.093 20.5833C280.276 20.3189 278.624 20.0433 277.753 20.4381C276.882 20.8331 277.787 22.3077 276.494 22.3919C270.874 22.7575 265.34 21.7686 259.743 21.5054C258.913 21.4663 259.589 22.0027 258.365 21.9822C253.852 21.9092 246.049 22.2033 242.161 21.0028C239.046 20.0413 243.011 19.4662 240.622 19.0472C239.47 18.847 238.177 20.5033 237.896 20.5495C235.155 21.0216 233.277 20.2272 230.816 20.3957C230.308 20.4308 230.788 21.127 230.356 21.1492C228.879 21.2314 227.338 20.8878 225.928 20.9087C225.295 20.9197 225.399 21.4449 224.818 21.3902C223.429 21.2653 222.204 21.0153 220.86 20.4922C220.738 20.4445 221.587 19.8154 220.559 19.7658C218.894 19.6873 216.838 19.1531 214.909 19.6044C214.336 19.7404 214.285 20.9336 213.083 20.0789C212.83 19.9004 213.193 18.475 211.738 19.6783C211.494 19.8782 209.06 21.4896 207.913 20.3837C207.61 20.0926 206.849 18.9001 206.161 19.0675C206.067 19.0946 206.423 19.745 205.855 19.7935C203.852 19.9534 201.761 19.8331 199.704 19.9832C199.155 20.0245 199.954 20.7082 199.136 20.7487C196.887 20.8608 194.087 20.6224 191.896 20.3604C191.089 20.2625 191.662 19.7267 191.604 19.6655C190.681 18.6691 190.089 19.9684 189.772 20.0372C187.805 20.4473 186.332 19.7936 184.525 19.9122C184.027 19.9433 184.364 20.5782 184.264 20.6316C183.223 21.1517 184.016 20.0461 183.369 19.9061C181.557 19.51 179.526 19.5101 177.682 19.5446C177.005 19.5581 177.747 20.303 177.14 20.3068C173.544 20.3429 169.81 20.181 166.314 19.694C165.656 19.6009 166.085 19.0522 165.95 18.9211C165.024 18.0042 163.604 19.1884 163.281 19.2965C161.814 19.7905 161.261 19.2822 159.975 19.3427C153.69 19.6468 145.952 19.1276 140.035 18.7788C132.325 18.3274 126.35 17.6473 118.988 17.6033C118.52 17.5998 118.974 18.3552 118.57 18.3617C113.36 18.4122 108.243 17.9947 103.022 18.0804C102.594 18.0862 103.193 18.8065 102.505 18.8394C101.093 18.9117 99.3092 18.8292 97.8902 18.5688C97.198 18.4432 98.145 17.8612 97.4479 17.7471C95.8249 17.48 94.0803 17.3865 92.4047 17.4581C91.6915 17.4902 92.7478 18.2378 91.8223 18.2233C85.5173 18.1388 79.3238 18.1097 72.9772 17.0183C72.5421 16.9434 72.1953 15.4683 71.2598 15.7264C71.1798 16.1314 71.1718 16.6099 71.1305 17.0439C61.9488 17.051 52.8792 16.3181 43.6796 16.0118C43.2917 15.999 43.9429 16.7921 43.1919 16.7714C38.8449 16.6523 34.6182 16.763 30.1905 15.8811C29.7512 15.7947 30.0114 14.4342 28.7061 14.6086C28.4758 14.6406 26.5131 14.7743 25.9994 15.0584C25.9296 15.1014 26.271 15.7479 25.6396 15.7508C21.9702 15.7569 18.131 15.5162 14.4799 15.036C13.8907 14.9573 14.5367 14.2938 14.1172 14.2319C11.1412 13.7975 7.88167 14.2333 5.0447 13.5462C3.14579 13.0838 3.88168 11.9276 2.89577 10.7471C2.75631 10.5805 1.57472 10.5254 1.53023 9.85169C1.41511 8.15744 2.03356 6.32067 1.84319 4.51309C1.80316 4.12377 0.209507 4.50258 1.17014 3.58795C1.23718 3.52681 2.39279 3.24396 2.68339 2.93281C2.88568 2.71773 2.54788 2.0253 2.95648 1.75367C3.36503 1.4823 3.79215 2.0663 4.46617 1.75196C5.14 1.43352 4.86661 0.648551 6.19804 0.589386ZM370.007 20.4054C368.972 19.7263 368.758 22.1145 369.909 21.5704C369.964 21.5412 370.06 20.4388 370.007 20.4054ZM497.167 23.1749C495.82 22.0859 494.841 23.614 495.79 24.4528C496.739 25.2907 497.578 23.5051 497.167 23.1749ZM511.433 22.7573C509.848 21.8857 509.511 25.2714 511.248 24.6283C511.349 24.592 511.526 22.8079 511.433 22.7573ZM7.6087 10.5345C7.59498 10.5024 6.74592 10.4504 6.72483 10.4814C6.25351 11.2299 7.9513 11.3333 7.6087 10.5345ZM525.592 22.2686C525.102 21.7974 523.645 22.2914 524.254 22.8773C524.744 23.3488 526.202 22.8549 525.592 22.2686ZM315.249 16.4956C315.234 16.4595 314.625 16.4123 314.633 16.6141C314.658 17.2641 315.51 17.102 315.249 16.4956ZM549.621 22.8244C546.074 22.6088 543.991 19.7536 547.849 20.1655C548.548 20.24 546.318 21.0216 547.203 21.2963C548.822 21.7969 549.948 20.0644 551.589 21.0483C551.886 21.2283 549.823 22.8429 549.614 22.8281C549.617 22.8269 549.619 22.8256 549.621 22.8244ZM369.473 17.5173C369.453 17.4852 368.61 17.4343 368.589 17.4652C368.113 18.2133 369.811 18.3162 369.473 17.5173ZM279.734 14.1366C279.689 14.068 277.734 13.9565 277.668 14.017C276.617 15.2336 280.57 15.4627 279.734 14.1366ZM426.318 17.1729C427.257 16.4317 428.361 16.369 429.07 17.3465C428.157 17.273 427.237 17.2427 426.318 17.1729Z" fill="#FFF5BF"/>
</svg>
