<svg width="1105" height="474" viewBox="0 0 1105 474" fill="none" xmlns="http://www.w3.org/2000/svg">
<path d="M67.7242 30.8683C57.0217 41.1354 42.8465 54.597 33.2454 65.3079C30.2767 68.6588 31.4017 66.6626 29.3942 68.9893C27.5207 71.1991 25.8461 73.4516 24.4974 75.586C23.3279 77.4404 22.3099 79.904 21.34 82.5906C20.7179 84.3536 20.7632 81.926 20.1372 83.7979C16.8373 94.3665 15.6246 105.615 14.011 117.408C13.8648 118.517 13.7274 119.574 13.586 120.686C11.8401 135.304 13.7317 150.903 15.744 166.333C17.5009 180.401 21.152 193.875 25.8869 207.459C32.6594 227.14 40.8153 246.414 50.7929 264.889C53.9599 270.748 57.3251 276.536 60.8516 282.256C69.0101 295.518 79.2506 310.739 90.0122 323.903C92.7789 327.292 95.5631 330.526 98.354 333.569C99.9477 335.298 99.4503 333.86 99.785 334.16C105.056 338.82 102.609 337.906 105.663 341.326C112.646 349.054 120.809 356.597 129.359 363.371C135.715 368.425 142.241 373.086 148.506 377.238C154.774 381.34 149.179 376.199 155.099 380.9C155.513 381.224 153.579 380.709 155.264 381.889C159.074 384.578 166.67 389.128 169.765 390.98C170.273 391.289 170.751 391.578 171.19 391.842C175.943 394.67 177.218 395.399 182.516 398.188C189.254 401.722 197.209 405.502 205.125 408.304C206.507 408.798 207.879 409.265 209.237 409.696C211.184 410.305 208.82 408.861 211.944 409.755C215.038 410.677 223.379 413.02 226.186 413.851C228.991 414.709 227.666 414.896 228.144 415.134C232.068 417.13 242.254 418.047 243.528 418.283C252.799 420.099 261.485 421.89 270.04 423.709C282.961 426.45 295.489 429.224 308.728 431.824C325.387 435.092 343.283 438.287 359.144 441.347C378.049 444.993 394.03 448.36 412.436 451.672C414.386 452.023 412.254 450.867 414.607 451.287C414.801 451.322 414.994 451.357 415.187 451.391C436.817 455.225 457.802 458.967 479.566 459.821C482.983 460.049 486.44 460.198 489.923 460.33C492.46 460.424 489.17 461.034 491.716 461.165C503.542 461.765 520.665 462.449 532.351 461.801C536.064 461.596 539.239 461.242 541.516 460.628C552.177 461.167 564.909 461.832 574.381 462.625C575.139 462.692 575.726 462.759 576.173 462.826C579.163 463.282 575.496 463.717 582.034 463.594C583.73 463.561 581.546 462.883 584.082 462.881C594.771 462.871 606.428 463.222 617.006 462.935C619.147 462.874 618.567 462.306 619.175 462.205C624.299 461.399 632.799 462.733 634.663 462.814C648.804 463.446 659.128 462.958 672.266 462.467C675.319 462.346 671.681 461.736 674.614 461.589C676.165 461.511 677.754 461.428 679.311 461.343C693.023 460.603 707.002 459.54 720.278 458.214C723.573 457.883 720.631 458.902 722.211 458.775C729.17 458.179 730.53 456.747 737.173 455.991C738.571 455.825 737.875 456.496 738.138 456.516C742.268 456.829 745.497 454.887 746.511 454.678C752.92 453.338 758.23 452.547 763.495 451.744C768.765 450.935 773.988 450.118 780.156 448.592C781.626 448.225 778.152 448.313 782.273 447.323C803.174 442.304 824.679 436.158 845.337 429.102C852.092 426.846 858.855 424.919 865.519 423.151C869.765 422.026 866.896 423.395 867.18 423.381C871.788 423.125 874.215 421.023 875.567 420.576C879.617 419.258 883.6 418.138 887.255 416.883C893.421 414.765 899.044 413.031 903.29 410.625C912.582 407.78 921.901 405.095 930.768 401.694C950.987 393.837 970.805 384.952 990.398 375.709C1000.43 371.175 1009.18 365.221 1018.02 358.419C1022.01 355.47 1025.79 352.19 1029.47 348.756C1029.9 348.349 1029.62 349.577 1030.48 348.759C1040.74 338.645 1037.99 339.825 1043.19 331.808C1044.48 329.791 1050.24 325.056 1050.72 324.606C1052.5 323.002 1051.78 325.548 1052.33 324.973C1056.84 320.173 1053.6 319.034 1058.82 311.97C1058.99 311.751 1058.8 313.044 1059.28 312.483C1060.79 310.744 1061.93 308.757 1063.41 307.049C1066.7 303.241 1069.05 302.587 1072.58 296.057C1072.67 295.882 1072.76 295.703 1072.86 295.519C1073.26 294.607 1071.08 294.914 1075.06 288.371C1076.83 285.845 1082.34 273.427 1083.45 269.749C1084.76 266.155 1084.52 268.831 1084.63 268.582C1088.4 258.88 1087.54 262.709 1090 257.911C1092.36 253.034 1089.28 253.837 1089.43 251.687C1089.6 249.541 1091.75 242.127 1092.35 240.311C1092.95 238.496 1092.85 240.889 1093.31 239.265C1093.35 239.144 1093.38 239.026 1093.42 238.91C1096.05 228.556 1092.79 234.194 1092.89 230.595C1092.88 222.09 1094.89 215.501 1095.14 207.529C1095.21 205.379 1094.73 207.131 1094.7 205.213C1094.66 201.607 1094.85 198.672 1095.11 195.663C1095.39 192.308 1095.61 188.98 1095.5 184.421C1095.47 183.038 1094.49 176.052 1095.46 171.597C1095.6 170.961 1096.1 172.781 1096.26 169.544C1096.5 164.765 1096.51 156.058 1096.04 150.932C1095.7 147.11 1095.11 151.54 1095.08 146.741C1095.05 144.637 1095.83 148.52 1095.71 144.507C1095.66 140.51 1094.34 130.406 1093.64 126.581C1093.01 122.748 1092.71 124.956 1092.61 124.649C1092.37 123.815 1091.93 121.881 1091.57 119.894C1091.14 117.514 1090.71 115.145 1090.66 114.789C1089.35 105.804 1087.78 97.0413 1084.49 89.1108C1077.76 75.5518 1065.14 65.1216 1053.5 54.8112C1048.13 50.2417 1041.6 46.9736 1034.96 43.8705C1032.66 42.8101 1033.89 44.1505 1033.54 43.9951C1025.57 40.585 1032.53 41.8277 1027.28 38.7242C1027.42 39.8453 1025.98 39.3747 1023.21 38.1624C1021.93 37.6032 1020.49 36.9525 1018.71 36.227C1016.02 35.1467 1017.25 36.2629 1016.99 36.21C1012.7 35.2679 1010.25 33.2568 1009.61 32.7913C1007.18 31.0497 1003.9 30.971 1002.18 29.9207C1000.45 28.8807 1005.02 29.3409 999.368 27.7939C997.651 27.8657 1001.5 30.1858 997.196 29.3132C990.005 27.5849 980.494 27.7511 969.629 26.2447C956.918 23.6286 943.802 21.6109 936.316 20.4145C931.177 19.622 927.385 19.0328 924.208 18.4953C919.184 17.6591 915.707 17.2172 910.925 16.5619C896.86 14.7763 901.931 16.2937 893.125 15.9638C884.281 15.685 888.75 13.6764 887.524 13.0659C886.323 12.4595 884.916 12.8727 883.395 12.4703C881.871 12.0674 885.241 11.9914 881.621 11.5947C879.317 11.342 874.456 11.2859 870.87 11.3354C868.8 11.3647 867.16 11.4933 866.677 11.6527C863.881 12.6153 868.272 13.9879 858.738 13.1169C858.187 13.0704 860.003 12.5192 857.893 12.3733C848.76 11.7705 839.363 11.5877 830.003 10.8738C822.209 10.2835 814.416 9.89695 806.753 9.52829C804.438 9.41667 806.522 8.77087 805.18 8.69889C791.138 7.97494 796.166 9.26696 788.415 10.3769C790.028 8.82326 786.68 7.88672 778.267 7.14429C777.362 7.05442 776.4 6.97429 775.376 6.90556C768.961 6.50837 770.024 7.34749 765.869 7.70717C764.622 7.8159 760.111 7.16885 759.281 7.50717C756.535 8.60788 760.792 9.97535 749.83 9.25743C749.347 9.22455 750.9 8.61689 749.225 8.54967C738.465 8.11592 737.182 9.32323 725.513 9.23096C722.209 9.20283 717.961 9.03537 713.398 8.80452C705.439 8.40036 696.445 7.97822 689.847 7.85457C690.074 5.91181 680.26 6.30119 676.282 7.63653C669.551 7.56782 662.268 7.65181 655.756 7.48722C653.515 7.43132 654.986 6.86484 654.703 6.80503C650.364 5.8672 647.437 7.18319 645.988 7.24116C630.232 7.81631 617.367 6.9415 602.339 8.05626C602.236 8.0641 602.122 8.12239 601.975 8.204C601.33 8.54001 600.17 9.26697 596.932 8.51531C596.658 8.45133 601.604 7.77477 594.555 7.81783C587.472 7.85247 574.15 7.4294 564.324 8.22299C561.937 8.4157 555.977 9.60454 551.101 8.81022C550.458 8.70227 551.152 8.30693 550.237 8.10329C547.229 7.45494 545.561 8.83658 542.073 7.71549C538.568 6.5945 531.109 5.79905 521.3 6.66116C520.999 6.68632 518.6 7.78195 515.53 7.78262C513.133 7.7834 510.516 7.74187 507.59 7.70118C504.446 7.65335 501.022 7.60584 498.295 7.6208C495.791 7.63476 497.396 8.29872 496.961 8.31276C480.249 8.75377 468.332 8.18679 450.402 7.96846C447.137 7.92703 437.646 8.8613 431.321 8.1504C424.302 7.37225 431.518 4.06763 415.456 4.88069C408.97 5.20581 400.796 9.39585 389.153 7.25131C366.589 7.82474 345.718 6.75024 323.09 7.56344C322.067 7.59951 318.889 8.77188 316.467 8.76149C312.907 8.74371 310.992 8.2035 308.428 8.17382C297.801 8.0357 288.073 8.52898 277.833 8.49308C274.016 8.48073 275.271 7.91252 270.667 7.89927C267.94 7.89164 265.569 8.1646 262.953 8.30935C261.119 8.40504 259.131 8.44597 256.685 8.31814C251.868 8.07363 247.193 6.58915 240.885 6.47149C240.637 7.97066 236.294 7.97395 228.628 8.46969C227.174 8.56591 228.739 9.06527 228.053 9.13764C225.206 9.44469 222.549 9.05379 219.892 9.39129C219.259 9.47232 219.205 9.98405 218.667 10.0797C214.095 10.9078 206.621 9.93465 205.284 9.77486C200.371 9.14884 197.999 9.89315 194.231 9.7388C190.419 9.59413 196.079 8.98738 191.641 8.99026C187.738 8.98712 183.368 9.19061 178.943 9.3036C172.877 9.43353 166.696 10.0495 161.355 10.6098C157.652 11.0035 160.252 11.4084 159.723 11.4804C152.085 12.5139 144.302 12.5555 140.128 14.1721C139.053 13.5672 138.234 13.213 137.512 13.0388C137.507 13.0391 137.491 13.0404 137.486 13.0409C134.445 12.4455 133.445 15.0018 124.532 15.213C123.66 15.2301 122.43 13.6714 125.713 13.1421C128.707 12.6583 133.168 12.6577 137.375 11.9945C137.39 11.993 137.436 11.9891 137.451 11.9883C137.866 11.9438 138.276 11.8925 138.679 11.8335C139.763 11.6969 145.829 9.65449 146.653 9.46698C153.173 8.10449 154.389 10.4277 154.754 10.5342C158.896 11.5553 166.336 9.06983 168.362 8.79992C172.038 8.26365 175.533 7.97025 178.897 7.83294C183.807 7.61013 188.507 7.33972 193.13 6.93781C198.173 6.49491 198.621 4.86107 202.59 4.7903C215.792 4.59872 220.418 6.81293 232.809 4.68422C235.455 4.23608 232.812 2.48094 242.354 3.7859C242.93 3.86752 250.109 5.08546 254.124 4.25357C254.638 4.14841 254.618 3.63083 255.303 3.58314C258.214 3.38933 260.336 3.47421 262.931 3.50975C264.383 3.53148 265.948 3.53579 267.825 3.454C272.738 3.23549 278.715 2.91894 284.353 3.07624C287.762 3.17004 292.117 4.12167 293.753 4.35316C298.368 5.02011 303.33 3.89196 306.134 4.70876C309.009 5.52961 303.372 6.80055 310.945 7.3172C311.229 5.97153 311.856 4.58955 312.298 3.23589C328.788 3.24482 345.042 3.65031 361.608 3.56263C363.658 3.55044 361.56 2.83092 363.759 2.79922C373.05 2.66866 381.157 3.17094 390.79 2.94979C398.245 2.77584 406.418 1.99665 414.214 1.7901C418.96 3.32092 430.554 2.77752 438.948 2.90098C441.895 2.94358 441.697 3.35501 443.777 3.48476C451.705 3.96377 447.982 2.61161 450.146 2.39286C459.444 1.45814 460.234 4.53525 471.191 4.42962C471.757 4.42529 478.869 2.76365 479.83 2.65822C486.002 1.97235 480.847 3.2263 484.748 3.33484C491.797 3.53256 496.779 3.90668 505.087 3.38784C505.719 3.34759 506.577 3.24583 507.568 3.13127C510.518 2.80779 514.567 2.3818 518.006 2.94459C518.613 3.04446 518.269 3.58897 518.782 3.61756C527.813 4.08887 528.083 2.3796 533.192 1.76106C538.336 1.14266 546.343 2.23325 547.925 2.5519C552.202 3.37791 544.717 2.96498 544.453 3.05232C541.769 4.10531 547.589 3.86889 552.024 3.89656C552.684 5.56072 558.866 5.3718 556.61 3.91636C556.377 3.7577 552.908 3.96194 552.024 3.89656C555.909 2.20675 562.668 1.89937 570.248 3.285C573.784 3.93463 570.458 4.83754 581.173 4.31807C586.037 4.0868 584.131 2.97084 588.423 2.58259C592.546 2.21334 597.141 2.16441 601.915 2.22151C608.452 2.30102 615.252 2.5589 621.127 2.41186C624.793 2.3203 621.207 1.7198 623.729 1.63567C630.376 1.41164 636.269 1.84349 642.955 1.56523C643.559 1.53929 642.076 0.887789 644.155 0.868472C659.934 0.715453 673.676 1.10214 690.17 1.22491C696.146 1.27127 705.698 1.16587 713.592 1.3016C716.217 1.346 718.603 1.39478 720.653 1.46033C734.898 1.94261 752.379 3.03323 764.692 3.19739C772.73 3.35128 771.003 2.65233 774.495 2.39475C775.735 2.3112 777.145 2.32882 778.632 2.42448C784.74 2.80434 792.739 3.95848 794.005 4.19646C794.041 4.21043 787.244 4.20791 790.865 4.6317C792.959 5.38487 793.928 4.19756 794.005 4.19646C795.011 4.37381 808.707 4.77295 811.449 4.74754C812.936 4.72145 812.129 4.07311 812.899 4.07189C818.711 4.07055 824.55 4.18225 830.398 4.44697C842.664 5.02576 855.226 4.77783 868.265 5.96437C868.599 6.00335 868.041 6.65975 868.825 6.74359C869.666 6.83579 870.484 6.92518 871.283 7.01248C880.525 8.00475 887.077 7.68239 895.294 7.90714C904.202 8.14028 911.297 9.0405 916.44 10.9048C919.07 11.178 922.153 11.6494 925.246 12.2612C929.885 13.1818 934.67 14.1519 937.965 14.8334C943.37 15.9451 944.331 14.7086 944.816 14.7524C955.153 15.6755 962.444 16.8957 971.122 18.8079C974.184 19.5495 978.39 19.6265 983.609 20.0331C991.533 20.2723 1006.93 24.0157 1014.67 27.1327C1019.32 28.8501 1022.43 30.4036 1026.04 32.075C1027.2 32.6137 1028.42 33.1566 1029.77 33.7243C1030.5 34.0342 1030.03 33.1464 1030.26 33.2273C1036.53 35.3319 1033.05 35.3527 1034.17 36.1645C1038.25 39.1882 1040.83 40.7353 1048.69 44.6971C1050.23 45.4902 1055.11 46.6392 1058.52 48.8913C1059 49.1881 1059.45 49.497 1059.84 49.8079C1063.48 52.7226 1061.65 52.1413 1065.45 55.2376C1065.77 55.5055 1066.03 55.0856 1068.27 57.1358C1076.54 65.0664 1085.72 72.9065 1092.03 85.8615C1093.26 88.7508 1094.26 91.6609 1095.09 94.5355C1095.67 96.5622 1095.68 93.7543 1096.49 96.6968C1098.42 103.948 1099.53 111.471 1100.42 118.772C1101.2 124.75 1102.38 131.673 1102.84 137.962C1103.1 141.252 1102.36 139.245 1102.28 139.97C1101.79 144.417 1103.49 150.456 1103.55 151.476C1104.7 167.872 1103.71 181.489 1102.69 196.141C1102.2 202.727 1102.39 209.779 1102.39 217.859C1102.46 219.141 1103.36 229.96 1101.25 234.571C1101.16 234.805 1100.1 237.229 1099.46 240.142C1099.24 241.162 1099.1 242.264 1099.12 243.366C1099.13 243.617 1100.32 241.019 1099.3 245.766C1098.28 250.51 1097.12 258.474 1094.55 265.002C1093.73 267.077 1091.13 271.661 1089.69 278.192C1089.71 278.588 1087.65 289.133 1084.31 291.61C1083.74 291.992 1082.78 290.724 1079.28 297.894C1078.62 299.193 1080.28 297.335 1078.64 300.197C1078.57 300.326 1078.49 300.464 1078.4 300.613C1075.4 305.655 1070.57 311.75 1066.9 318.014C1066.27 319.108 1063.99 324.121 1060.66 327.015C1060.14 327.466 1060.48 326.107 1059.03 327.873C1052.16 336.24 1045.15 345.267 1037.03 353.007C1034.12 355.734 1034.93 353.665 1031.78 356.358C1029.57 358.235 1025.77 361.449 1022.41 364.096C1021.06 365.172 1019.84 366.208 1018.92 367.08C1015.81 369.998 1020.45 368.309 1015.32 372.31C1008.99 377.245 1001.74 381.359 994.703 384.681C976.883 393.152 958.749 400.731 940.335 408.045C936.555 409.533 939.843 408.789 934.383 410.951C934.353 410.963 934.322 410.975 934.292 410.987C922.182 415.751 905.362 420.408 890.455 425.733C877.777 430.064 866.524 432.52 858.592 434.578C844.077 438.293 861.801 431.863 850.796 435.072C849.784 435.376 848.777 435.757 847.802 436.181C843.653 437.985 840.009 440.405 838.966 440.799C826.432 445.583 817.263 447.536 805.701 450.926C803.304 451.622 805.843 451.648 803.8 452.229C796.837 454.212 789.353 455.746 782.656 457.353C779.61 458.082 780.333 458.452 777.512 459.046C773.335 459.922 769.44 460.648 765.467 461.274C763.107 461.645 760.724 461.977 758.244 462.275C757.639 462.347 761.53 460.927 756.567 461.868C748.53 463.385 738.44 464.612 729.176 466.384C726.424 466.906 726.472 468.127 720.399 468.041C719.119 468.013 720.568 466.43 713.743 468.429C712.609 468.784 701.041 471.593 695.192 470.909C693.65 470.74 689.707 469.841 686.366 470.223C685.915 470.279 687.766 470.813 685.006 471.037C683.281 471.173 681.569 471.293 679.811 471.403C671.638 471.915 663.227 472.171 654.964 472.518C652.289 472.63 656.292 473.21 652.3 473.353C641.326 473.744 627.627 473.649 616.925 473.393C612.966 473.298 615.705 472.76 615.417 472.699C610.805 471.704 608.06 472.991 606.534 473.054C596.991 473.42 589.727 472.684 580.955 472.657C578.512 472.646 580.229 473.311 579.742 473.356C575.107 473.753 577.945 472.896 575.932 472.607C575.76 472.583 575.556 472.563 575.313 472.547C566.451 471.983 556.502 471.682 547.57 471.362C544.301 471.254 547.94 472.134 545.012 472.031C540.735 471.885 536.485 471.769 532.154 471.689C519.061 471.479 505.527 471.535 492.593 471.061C489.354 470.939 491.4 470.408 490.726 470.271C487.001 469.499 481.809 470 479.035 470.19C478.377 470.24 477.878 470.28 477.578 470.287C470.518 470.461 467.718 469.867 461.313 469.435C445.912 468.336 429.476 465.399 413.177 462.427C396.287 459.299 379.522 456.003 365.113 453.163C329.469 446.117 301.63 440.224 268.038 433.486C266.911 433.258 265.799 433.033 264.701 432.812C262.462 432.358 264.571 433.553 262.63 433.169C242.271 428.942 222.08 425.128 201.648 417.949C197.25 416.378 192.854 414.659 188.512 412.774C186.531 411.904 189.09 413.835 185.897 412.44C179.371 409.589 171.501 405.313 165.531 401.554C165.502 401.536 165.473 401.518 165.445 401.5C162.523 399.662 166.818 401.483 163.88 399.641C157.054 395.343 149.807 390.685 142.903 386.125C139.967 384.178 143.946 387.778 140.162 385.191C134.109 381.03 128.184 376.712 122.414 372.168C107.159 360.27 93.2865 346.321 81.3442 331.002C78.5316 327.418 75.791 323.756 73.1287 320.032C71.8733 318.269 71.9011 315.889 68.9813 312.367C68.45 312.328 68.0738 312.625 67.6334 312.758C57.7191 299.237 48.6667 285.171 40.6537 270.437C30.3685 251.468 21.9863 231.621 14.9428 211.299C12.6643 204.717 10.4905 198.02 8.66151 191.125C8.16748 189.237 8.26918 192.708 7.31939 189.034C5.54942 182.081 4.21218 175.06 3.2314 168.103C1.28973 154.066 -0.627799 139.682 0.726416 124.143C0.920623 122.274 1.76464 122.776 2.35266 119.388C2.48943 118.652 2.61014 117.75 2.7118 116.574C2.78921 115.463 3.82082 105.901 3.91534 103.382C3.9209 103.041 3.03124 104.69 3.46868 101.606C5.28047 90.9514 6.19366 80.0578 13.01 68.298C17.6325 61.3364 22.7772 55.7966 27.9157 50.3696C29.9524 48.2552 28.3403 51.0017 29.7841 49.518C40.087 38.9744 51.2015 27.6329 61.8413 18.6126C68.9833 12.5927 67.2345 15.8077 71.6634 13.333C72.2895 12.9799 76.5747 9.1475 77.2548 9.44475C78.9531 10.1917 78.1148 13.435 80.172 14.009C80.6048 14.1356 86.0577 8.69943 83.2833 12.4381C83.0863 12.695 79.1609 16.6406 78.3674 17.7926C77.8057 18.598 79.5407 17.9492 78.2864 19.4656C77.0454 20.9713 75.0755 21.987 72.9304 24.4058C70.7993 26.8254 72.348 26.4385 67.7242 30.8683ZM962.37 19.9698C967.324 21.4788 968.513 19.2631 962.896 18.8747C962.626 18.8602 962.115 19.8948 962.37 19.9698ZM344.957 5.45615C351.628 6.49937 356.199 4.93972 351.493 4.13289C346.76 3.32705 342.933 5.13994 344.957 5.45615ZM275.738 6.40013C283.495 7.20436 284.755 3.80722 276.393 4.52271C275.914 4.56322 275.291 6.35348 275.738 6.40013ZM55.0972 29.1528C55.1611 29.1325 58.2002 26.2998 58.2452 26.2175C59.3263 24.1493 53.2678 29.7938 55.0972 29.1528ZM207.045 7.98256C209.487 8.3755 216.453 7.70395 213.439 7.19493C210.975 6.78138 203.971 7.48901 207.045 7.98256ZM1096.31 207.322C1096.28 207.402 1096.23 210.361 1096.43 210.303C1097.08 210.104 1096.92 205.988 1096.31 207.322ZM90.6509 15.9614C96.3794 15.9794 101.346 16.2376 104.768 16.4722C110.522 16.5868 111.849 17.4029 104.966 18.2726C104.946 18.275 104.886 18.2797 104.866 18.2809C103.451 18.391 101.714 18.4578 99.6173 18.4702C96.1951 18.5141 106.966 17.3395 102.599 17.2364C94.6575 17.0236 89.4006 18.7292 81.3127 17.7992C79.8492 17.6277 89.6703 15.9598 90.6815 15.9573C90.6713 15.9587 90.6611 15.96 90.6509 15.9614ZM964.795 23.3006C964.896 23.3427 968.92 24.1132 969.017 24.1099C971.353 23.7705 963.215 22.2002 964.795 23.3006ZM1021.94 356.591C1021.85 356.63 1020.32 357.89 1018.62 359.184C1016.49 360.801 1014.17 362.6 1014.06 362.731C1012.33 364.922 1016.11 362.44 1019.23 359.973C1021.8 357.943 1023.75 355.808 1021.94 356.591ZM689.684 7.80165C685.209 8.53347 679.868 8.60383 676.302 7.63755C680.746 7.69752 685.219 7.72313 689.684 7.80165Z" fill="#FFF5BF"/>
</svg>
